<?xml version="1.0" encoding="UTF-8" standalone="no"?>
<svg
   width="45"
   height="45"
   viewBox="0 0 45 45"
   fill="none"
   version="1.1"
   id="svg12"
   sodipodi:docname="google-recorder.svg"
   xmlns:inkscape="http://www.inkscape.org/namespaces/inkscape"
   xmlns:sodipodi="http://sodipodi.sourceforge.net/DTD/sodipodi-0.dtd"
   xmlns="http://www.w3.org/2000/svg"
   xmlns:svg="http://www.w3.org/2000/svg">
  <defs
     id="defs12" />
  <sodipodi:namedview
     id="namedview12"
     pagecolor="#ffffff"
     bordercolor="#000000"
     borderopacity="0.25"
     inkscape:showpageshadow="2"
     inkscape:pageopacity="0.0"
     inkscape:pagecheckerboard="0"
     inkscape:deskcolor="#d1d1d1" />
  <g>
    <g
       inkscape:label="Clip"
       id="g33">
      <path
         d="M28.9841 37.6159C37.4981 33.8691 41.3627 23.9298 37.6159 15.4159C33.8691 6.9019 23.9298 3.03733 15.4159 6.78411C6.90192 10.5309 3.03736 20.4702 6.78413 28.9841C10.5309 37.4981 20.4702 41.3626 28.9841 37.6159Z"
         fill="#EA4335"
         id="path1" />
    </g>
  </g>
  <path
     d="M27.9409 27.559C27.5179 27.559 27.1753 27.2164 27.1753 26.7935V17.6067C27.1753 17.1837 27.5179 16.8411 27.9409 16.8411C28.3638 16.8411 28.7064 17.1837 28.7064 17.6067V26.7935C28.7064 27.2164 28.3638 27.559 27.9409 27.559Z"
     fill="white"
     id="path2" />
  <path
     d="M25.0703 24.4967C24.6473 24.4967 24.3047 24.1541 24.3047 23.7311V20.6689C24.3047 20.2459 24.6473 19.9033 25.0703 19.9033C25.4932 19.9033 25.8358 20.2459 25.8358 20.6689V23.7311C25.8358 24.1541 25.4932 24.4967 25.0703 24.4967Z"
     fill="white"
     id="path3" />
  <path
     d="M30.812 24.4967C30.389 24.4967 30.0464 24.1541 30.0464 23.7311V20.6689C30.0464 20.2459 30.389 19.9033 30.812 19.9033C31.2349 19.9033 31.5775 20.2459 31.5775 20.6689V23.7311C31.5775 24.1541 31.2349 24.4967 30.812 24.4967Z"
     fill="white"
     id="path4" />
  <path
     d="M13.5869 24.4967C13.1639 24.4967 12.8213 24.1541 12.8213 23.7311V20.6689C12.8213 20.2459 13.1639 19.9033 13.5869 19.9033C14.0098 19.9033 14.3524 20.2459 14.3524 20.6689V23.7311C14.3524 24.1541 14.0098 24.4967 13.5869 24.4967Z"
     fill="white"
     id="path5" />
  <path
     d="M22.1996 27.559C21.7767 27.559 21.4341 27.2164 21.4341 26.7935V17.6067C21.4341 17.1837 21.7767 16.8411 22.1996 16.8411C22.6226 16.8411 22.9652 17.1837 22.9652 17.6067V26.7935C22.9652 27.2164 22.6226 27.559 22.1996 27.559Z"
     fill="white"
     id="path6" />
  <path
     d="M19.3286 32.1524C18.9056 32.1524 18.563 31.8098 18.563 31.3869V13.0133C18.563 12.5903 18.9056 12.2477 19.3286 12.2477C19.7515 12.2477 20.0941 12.5903 20.0941 13.0133V31.3869C20.0941 31.8098 19.7515 32.1524 19.3286 32.1524Z"
     fill="white"
     id="path7" />
  <path
     d="M16.4575 27.559C16.0345 27.559 15.6919 27.2164 15.6919 26.7935V17.6067C15.6919 17.1837 16.0345 16.8411 16.4575 16.8411C16.8804 16.8411 17.223 17.1837 17.223 17.6067V26.7935C17.223 27.2164 16.8804 27.559 16.4575 27.559Z"
     fill="white"
     id="path8" />
  <path
     d="M10.7158 21.4344C11.1387 21.4344 11.4813 21.777 11.4813 22.2C11.4813 22.6229 11.1387 22.9655 10.7158 22.9655C10.2928 22.9655 9.9502 22.6229 9.9502 22.2C9.9502 21.777 10.2928 21.4344 10.7158 21.4344Z"
     fill="white"
     id="path9" />
  <path
     d="M33.683 21.4344C34.106 21.4344 34.4486 21.777 34.4486 22.2C34.4486 22.6229 34.106 22.9655 33.683 22.9655C33.2601 22.9655 32.9175 22.6229 32.9175 22.2C32.9175 21.777 33.2601 21.4344 33.683 21.4344Z"
     fill="white"
     id="path10" />
  <path
     d="M36.5537 21.4344C36.9766 21.4344 37.3192 21.777 37.3192 22.2C37.3192 22.6229 36.9766 22.9655 36.5537 22.9655C36.1307 22.9655 35.7881 22.6229 35.7881 22.2C35.7881 21.777 36.1307 21.4344 36.5537 21.4344Z"
     fill="white"
     id="path11" />
  <path
     d="M7.84515 21.4344C8.26813 21.4344 8.61072 21.777 8.61072 22.2C8.61072 22.6229 8.26813 22.9655 7.84515 22.9655C7.42218 22.9655 7.07959 22.6229 7.07959 22.2C7.07959 21.777 7.42218 21.4344 7.84515 21.4344Z"
     fill="white"
     id="path12" />
  <path
     style="fill:none;fill-opacity:0.0705882"
     d="M 4.816962,7.197108 C 28.448411,26.011595 27.88171,35.305498 27.88171,35.305498 L 8.8972122,32.982022 5.7803544,19.664539 Z"
     id="path33" />
</svg>
