<?xml version="1.0" encoding="UTF-8" standalone="no"?>
<svg
   width="45"
   height="45"
   viewBox="0 0 45 45"
   fill="none"
   version="1.1"
   id="svg12"
   sodipodi:docname="google-recorder.svg"
   inkscape:version="1.4.4 (dcaf3e7d9e, 2026-05-05)"
   inkscape:export-filename="google-recorder.svg"
   inkscape:export-xdpi="96"
   inkscape:export-ydpi="96"
   xmlns:inkscape="http://www.inkscape.org/namespaces/inkscape"
   xmlns:sodipodi="http://sodipodi.sourceforge.net/DTD/sodipodi-0.dtd"
   xmlns="http://www.w3.org/2000/svg"
   xmlns:svg="http://www.w3.org/2000/svg">
  <defs
     id="defs12" />
  <sodipodi:namedview
     id="namedview12"
     pagecolor="#ffffff"
     bordercolor="#000000"
     borderopacity="0.25"
     inkscape:showpageshadow="2"
     inkscape:pageopacity="0.0"
     inkscape:pagecheckerboard="0"
     inkscape:deskcolor="#d1d1d1"
     inkscape:zoom="19.129381"
     inkscape:cx="13.722347"
     inkscape:cy="20.544313"
     inkscape:window-width="2180"
     inkscape:window-height="1468"
     inkscape:window-x="0"
     inkscape:window-y="0"
     inkscape:window-maximized="1"
     inkscape:current-layer="svg12" />
  <path
     d="M 31.560545,43.08889 C 42.931504,38.08481 48.092909,24.81027 43.088834,13.439439 38.084758,2.0684743 24.810224,-3.0928939 13.4394,1.9111586 2.068468,6.9152239 -3.0928841,20.189763 1.9111523,31.560595 6.9151887,42.93156 20.189721,48.092834 31.560545,43.08889 Z"
     fill="#ea4335"
     id="path1"
     style="stroke-width:1.33556" />
  <path
     d="m 30.16729,29.657287 c -0.564941,0 -1.022504,-0.457562 -1.022504,-1.022372 V 16.365386 c 0,-0.564942 0.457563,-1.022506 1.022504,-1.022506 0.564808,0 1.022371,0.457564 1.022371,1.022506 v 12.269529 c 0,0.56481 -0.457563,1.022372 -1.022371,1.022372 z"
     fill="#ffffff"
     id="path2"
     style="stroke-width:1.33556" />
  <path
     d="m 26.333432,25.567399 c -0.564943,0 -1.022505,-0.457562 -1.022505,-1.022505 V 20.45514 c 0,-0.564942 0.457562,-1.022505 1.022505,-1.022505 0.564808,0 1.02237,0.457563 1.02237,1.022505 v 4.089754 c 0,0.564943 -0.457562,1.022505 -1.02237,1.022505 z"
     fill="#ffffff"
     id="path3"
     style="stroke-width:1.33556" />
  <path
     d="m 34.001816,25.567399 c -0.564942,0 -1.022503,-0.457562 -1.022503,-1.022505 V 20.45514 c 0,-0.564942 0.457561,-1.022505 1.022503,-1.022505 0.564809,0 1.022372,0.457563 1.022372,1.022505 v 4.089754 c 0,0.564943 -0.457563,1.022505 -1.022372,1.022505 z"
     fill="#ffffff"
     id="path4"
     style="stroke-width:1.33556" />
  <path
     d="m 10.99666,25.567399 c -0.564941,0 -1.0225043,-0.457562 -1.0225043,-1.022505 V 20.45514 c 0,-0.564942 0.4575633,-1.022505 1.0225043,-1.022505 0.564809,0 1.022372,0.457563 1.022372,1.022505 v 4.089754 c 0,0.564943 -0.457563,1.022505 -1.022372,1.022505 z"
     fill="#ffffff"
     id="path5"
     style="stroke-width:1.33556" />
  <path
     d="m 22.499439,29.657287 c -0.564808,0 -1.022371,-0.457562 -1.022371,-1.022372 V 16.365386 c 0,-0.564942 0.457563,-1.022506 1.022371,-1.022506 0.564942,0 1.022505,0.457564 1.022505,1.022506 v 12.269529 c 0,0.56481 -0.457563,1.022372 -1.022505,1.022372 z"
     fill="#ffffff"
     id="path6"
     style="stroke-width:1.33556" />
  <path
     d="m 18.665045,35.792052 c -0.56494,0 -1.022503,-0.457563 -1.022503,-1.022371 V 10.23062 c 0,-0.5649418 0.457563,-1.0225044 1.022503,-1.0225044 0.564809,0 1.022373,0.4575626 1.022373,1.0225044 v 24.539061 c 0,0.564808 -0.457564,1.022371 -1.022373,1.022371 z"
     fill="#ffffff"
     id="path7"
     style="stroke-width:1.33556" />
  <path
     d="m 14.83052,29.657287 c -0.564943,0 -1.022505,-0.457562 -1.022505,-1.022372 V 16.365386 c 0,-0.564942 0.457562,-1.022506 1.022505,-1.022506 0.564808,0 1.022371,0.457564 1.022371,1.022506 v 12.269529 c 0,0.56481 -0.457563,1.022372 -1.022371,1.022372 z"
     fill="#ffffff"
     id="path8"
     style="stroke-width:1.33556" />
  <path
     d="m 7.1621348,21.477513 c 0.564807,0 1.0223699,0.457562 1.0223699,1.022505 0,0.564807 -0.4575629,1.02237 -1.0223699,1.02237 -0.5649422,0 -1.0225062,-0.457563 -1.0225062,-1.02237 0,-0.564943 0.457564,-1.022505 1.0225062,-1.022505 z"
     fill="#ffffff"
     id="path9"
     style="stroke-width:1.33556" />
  <path
     d="m 37.836211,21.477513 c 0.564941,0 1.022504,0.457562 1.022504,1.022505 0,0.564807 -0.457563,1.02237 -1.022504,1.02237 -0.564809,0 -1.022373,-0.457563 -1.022373,-1.02237 0,-0.564943 0.457564,-1.022505 1.022373,-1.022505 z"
     fill="#ffffff"
     id="path10"
     style="stroke-width:1.33556" />
  <path
     d="m 41.670201,21.477513 c 0.564811,0 1.022373,0.457562 1.022373,1.022505 0,0.564807 -0.457562,1.02237 -1.022373,1.02237 -0.564941,0 -1.022503,-0.457563 -1.022503,-1.02237 0,-0.564943 0.457562,-1.022505 1.022503,-1.022505 z"
     fill="#ffffff"
     id="path11"
     style="stroke-width:1.33556" />
  <path
     d="m 3.3282082,21.477513 c 0.5649153,0 1.0224648,0.457562 1.0224648,1.022505 0,0.564807 -0.4575495,1.02237 -1.0224648,1.02237 -0.5649017,0 -1.0224512,-0.457563 -1.0224512,-1.02237 0,-0.564943 0.4575495,-1.022505 1.0224512,-1.022505 z"
     fill="#ffffff"
     id="path12"
     style="stroke-width:1.33556" />
</svg>
